<?xml version="1.0" standalone="no"?>
<!DOCTYPE svg PUBLIC "-//W3C//DTD SVG 20010904//EN"
 "http://www.w3.org/TR/2001/REC-SVG-20010904/DTD/svg10.dtd">
<svg version="1.0" xmlns="http://www.w3.org/2000/svg"
 width="300.000000pt" height="300.000000pt" viewBox="0 0 300.000000 300.000000"
 preserveAspectRatio="xMidYMid meet">
<metadata>
Created by potrace 1.15, written by Peter Selinger 2001-2017
</metadata>
<g transform="translate(0.000000,300.000000) scale(0.100000,-0.100000)"
fill="#000000" stroke="none">
<path d="M2740 1585 l0 -405 85 0 85 0 0 405 0 405 -85 0 -85 0 0 -405z"/>
<path d="M350 1784 c-19 -8 -47 -27 -62 -41 l-28 -27 0 32 0 32 -85 0 -85 0 0
-300 0 -300 90 0 90 0 0 201 0 201 34 34 c44 44 103 48 141 9 25 -24 25 -24
25 -235 l0 -210 85 0 85 0 0 235 c0 263 -3 279 -63 332 -60 52 -156 68 -227
37z"/>
<path d="M932 1780 c-72 -26 -122 -68 -157 -132 -25 -46 -30 -66 -33 -148 -5
-114 17 -186 75 -245 59 -61 133 -90 228 -90 129 0 216 47 270 147 26 47 30
65 33 158 4 103 3 106 -30 169 -18 35 -49 77 -68 93 -81 64 -214 85 -318 48z
m178 -145 c46 -24 64 -68 64 -155 0 -52 -5 -85 -17 -107 -45 -84 -173 -84
-222 0 -24 41 -25 169 -2 214 31 59 114 81 177 48z"/>
<path d="M1570 1784 c-159 -55 -192 -257 -55 -330 22 -12 83 -31 135 -44 119
-27 140 -37 140 -66 0 -31 -27 -44 -89 -44 -71 0 -100 14 -107 50 l-6 30 -89
0 c-86 0 -89 -1 -89 -22 1 -33 33 -99 61 -125 13 -12 47 -32 74 -45 70 -31
228 -32 295 -1 115 52 162 186 98 275 -27 39 -97 72 -193 93 -107 23 -145 40
-145 62 0 32 22 43 82 43 60 0 98 -21 98 -55 0 -12 16 -15 86 -15 l86 0 -7 33
c-12 53 -36 97 -69 122 -68 51 -215 70 -306 39z"/>
<path d="M2204 1784 c-184 -65 -236 -386 -90 -552 66 -75 208 -93 290 -37 l35
24 3 -137 3 -137 85 0 85 0 3 418 2 417 -85 0 -85 0 0 -27 0 -26 -23 21 c-53
50 -142 64 -223 36z m170 -149 c41 -20 64 -59 72 -126 12 -108 -38 -199 -110
-199 -74 0 -112 34 -127 113 -9 54 5 145 29 177 37 49 82 60 136 35z"/>
</g>
</svg>
